# Blender 5.1.0
# www.blender.org
mtllib rock2.mtl
o Icosphere
v -0.146320 -0.733939 0.320678
v 0.723600 -0.486930 0.693426
v -0.276385 -0.486930 1.121997
v -0.756913 -0.236202 0.156371
v -0.211628 -0.552733 -0.863554
v 0.470141 -0.558898 -0.397958
v 0.217040 0.450258 0.903558
v -0.826371 0.174064 0.426873
v -0.682577 0.546906 -0.693223
v 0.355297 0.303945 -0.741487
v 0.994307 0.094314 -0.363986
v 0.079656 0.988519 0.042967
vn 0.1336 -0.9408 0.3117
vn 0.2731 -0.9620 -0.0000
vn -0.6470 -0.7519 0.1267
vn -0.6155 -0.7834 -0.0859
vn 0.0975 -0.9830 -0.1558
vn 0.7758 -0.6153 -0.1396
vn 0.3939 0.0068 0.9191
vn -0.8670 -0.3682 0.3358
vn -0.8738 -0.3171 -0.3687
vn 0.5450 -0.2465 -0.8014
vn 0.8370 0.3600 0.4122
vn -0.4668 0.4264 0.7748
vn -0.9864 -0.0685 -0.1494
vn -0.0113 0.1484 -0.9889
vn 0.4152 -0.2883 -0.8629
vn 0.7319 0.6241 0.2735
vn -0.4340 0.7310 0.5265
vn -0.6156 0.7680 0.1766
vn 0.1516 0.7705 -0.6191
vn 0.5093 0.7291 -0.4573
vt 0.144764 0.059774
vt 0.272728 0.157461
vt 0.090910 0.157461
vt 0.321596 0.014107
vt 0.451797 0.112955
vt 0.928231 0.070117
vt 1.000000 0.157461
vt 0.855094 0.194472
vt 0.806589 0.060448
vt 0.636364 0.157461
vt 0.556527 -0.003772
vt 0.363637 0.314921
vt 0.161646 0.279979
vt 0.909091 0.314921
vt 0.727273 0.314921
vt 0.626604 0.252764
vt 0.000000 0.314921
vt 0.272728 0.472382
vt 0.090910 0.472382
vt 0.818182 0.472382
vt 0.636364 0.472382
vt 0.454546 0.472382
s 0
f 1/1/1 2/2/1 3/3/1
f 2/2/2 1/4/2 6/5/2
f 1/6/3 3/7/3 4/8/3
f 1/9/4 4/8/4 5/10/4
f 1/11/5 5/10/5 6/5/5
f 2/2/6 6/5/6 11/12/6
f 3/3/7 2/2/7 7/13/7
f 4/8/8 3/7/8 8/14/8
f 5/10/9 4/8/9 9/15/9
f 6/5/10 5/10/10 10/16/10
f 2/2/11 11/12/11 7/13/11
f 3/3/12 7/13/12 8/17/12
f 4/8/13 8/14/13 9/15/13
f 5/10/14 9/15/14 10/16/14
f 6/5/15 10/16/15 11/12/15
f 7/13/16 11/12/16 12/18/16
f 8/17/17 7/13/17 12/19/17
f 9/15/18 8/14/18 12/20/18
f 10/16/19 9/15/19 12/21/19
f 11/12/20 10/16/20 12/22/20
