# Blender 5.1.0
# www.blender.org
mtllib tree1.mtl
o Cube
v -0.577413 0.006077 0.242582
v -0.242653 -0.010298 -0.577324
v 0.577413 -0.006077 -0.242582
v 0.242653 0.010298 0.577324
v -2.422505 6.346940 0.487891
v -2.429867 6.378410 0.321749
v -2.317442 6.503542 0.340468
v -2.310080 6.472073 0.506611
v -0.339241 8.335815 -0.566388
v -0.255453 8.321781 -0.712780
v -0.108724 8.341109 -0.630652
v -0.192512 8.355145 -0.484260
v 1.036981 7.818696 -3.036273
v 1.200683 7.779259 -3.053425
v 1.233011 7.847590 -2.901987
v 1.069309 7.887027 -2.884835
v 0.403017 5.461214 -2.019060
v 0.872486 5.289762 -2.033311
v 0.991912 5.584718 -1.647644
v 0.522443 5.756169 -1.633393
v -0.790487 7.938159 1.902442
v -0.863941 7.995974 1.761340
v -0.714643 8.055100 1.707846
v -0.641189 7.997285 1.848947
v -0.631929 4.603871 0.210778
v -0.650596 4.683665 -0.210492
v -0.348288 5.034504 -0.127298
v -0.381388 4.966489 0.200446
v -0.919962 4.884262 0.255355
v -0.936811 4.956283 -0.124876
v -0.679517 5.242657 -0.082034
v -0.662668 5.170637 0.298197
v -1.161882 5.119764 0.292795
v -1.177204 5.185256 -0.052966
v -0.943235 5.445669 -0.014008
v -0.927914 5.380177 0.331753
v -1.378007 5.330154 0.326243
v -1.391964 5.389813 0.011276
v -1.178833 5.627033 0.046764
v -1.164876 5.567374 0.361731
v -1.576774 5.523648 0.357004
v -1.589476 5.577942 0.070359
v -1.395509 5.793833 0.102656
v -1.382808 5.739538 0.389301
v -1.762722 5.704662 0.385782
v -1.774249 5.753938 0.125631
v -1.598211 5.949874 0.154943
v -1.586683 5.900598 0.415094
v -1.938643 5.875916 0.413008
v -1.949060 5.920444 0.177923
v -1.789984 6.097501 0.204410
v -1.779566 6.052973 0.439495
v -2.106414 6.039236 0.438972
v -2.115772 6.079236 0.227792
v -1.972871 6.238289 0.251586
v -1.963513 6.198289 0.462767
v -2.267370 6.195922 0.463882
v -2.275712 6.231578 0.275635
v -2.148330 6.373358 0.296846
v -2.139988 6.337701 0.485092
v -0.112945 5.031525 -0.472626
v 0.268988 5.081836 -0.258849
v 0.011801 5.142047 0.062804
v -0.332103 5.490519 -0.152955
v -0.131369 5.456896 -0.503673
v 0.220157 5.503201 -0.306916
v 0.019423 5.536824 0.043802
v -0.332994 5.845348 -0.204513
v -0.146843 5.814167 -0.529750
v 0.179144 5.857109 -0.347288
v -0.007007 5.888289 -0.022051
v -0.333789 6.162341 -0.250574
v -0.160667 6.133343 -0.553047
v 0.142503 6.173279 -0.383356
v -0.030618 6.202276 -0.080882
v -0.334520 6.453877 -0.292935
v -0.173381 6.426887 -0.574473
v 0.108805 6.464058 -0.416526
v -0.052334 6.491049 -0.134989
v -0.335204 6.726610 -0.332564
v -0.185275 6.701497 -0.594516
v 0.077280 6.736082 -0.447557
v -0.072649 6.761195 -0.185605
v -0.335851 6.984637 -0.370056
v -0.196527 6.961300 -0.613479
v 0.047456 6.993439 -0.476916
v -0.091868 7.016776 -0.233493
v -0.336468 7.230710 -0.405812
v -0.207259 7.209067 -0.631563
v 0.019012 7.238873 -0.504914
v -0.110197 7.260516 -0.279162
v -0.337061 7.466786 -0.440114
v -0.217555 7.446769 -0.648913
v -0.008275 7.474337 -0.531774
v -0.127781 7.494354 -0.322976
v -0.337631 7.694325 -0.473177
v -0.227477 7.675874 -0.665635
v -0.034576 7.701285 -0.557664
v -0.144730 7.719736 -0.365205
v -0.338183 7.914447 -0.505161
v -0.237077 7.897512 -0.681812
v -0.060019 7.920835 -0.582709
v -0.161125 7.937771 -0.406058
v -0.338719 8.128039 -0.536197
v -0.246392 8.112574 -0.697509
v -0.084708 8.133872 -0.607011
v -0.177036 8.149338 -0.445699
v 0.564340 6.061750 -2.281495
v 0.968389 5.964413 -2.323828
v 1.048180 6.133066 -1.950049
v 0.644132 6.230404 -1.907715
v 0.656668 6.404960 -2.428936
v 1.013766 6.318933 -2.466351
v 1.084286 6.467989 -2.136005
v 0.727187 6.554016 -2.098590
v 0.734214 6.693223 -2.552774
v 1.051879 6.616697 -2.586057
v 1.114611 6.749293 -2.292190
v 0.796947 6.825819 -2.258907
v 0.803493 6.950751 -2.663406
v 1.085928 6.882711 -2.692998
v 1.141703 7.000602 -2.431722
v 0.859268 7.068642 -2.402130
v 0.867207 7.187595 -2.765154
v 1.117242 7.127360 -2.791352
v 1.166619 7.231728 -2.560048
v 0.916584 7.291963 -2.533850
v 0.926812 7.409164 -2.860340
v 1.146537 7.356231 -2.883361
v 1.189928 7.447946 -2.680096
v 0.970203 7.500879 -2.657075
v 0.983203 7.618786 -2.950393
v 1.174252 7.572762 -2.970409
v 1.211981 7.652507 -2.793672
v 1.020931 7.698531 -2.773655
v -0.152554 4.516119 -0.601519
v 0.297936 4.301918 -0.567214
v 0.449516 4.669299 -0.263810
v -0.000974 4.883500 -0.298114
v -0.015308 4.748683 -0.951690
v 0.435182 4.534482 -0.917386
v 0.586762 4.901864 -0.613982
v 0.136272 5.116065 -0.648286
v 0.121938 4.981247 -1.301862
v 0.572427 4.767046 -1.267558
v 0.724008 5.134428 -0.964154
v 0.273518 5.348629 -0.998458
v 0.259184 5.213812 -1.652034
v 0.709674 4.999611 -1.617730
v 0.861254 5.366992 -1.314326
v 0.410764 5.581193 -1.348630
v -0.224712 4.861328 0.509934
v 0.163912 5.015234 0.370688
v -0.297857 5.259107 0.689960
v -0.473835 5.397618 0.351915
v -0.116151 5.539271 0.223755
v 0.059827 5.400760 0.561800
v -0.359292 5.593204 0.841165
v -0.522484 5.721652 0.527680
v -0.190787 5.853013 0.408832
v -0.027595 5.724565 0.722317
v -0.414175 5.891676 0.976248
v -0.565945 6.011134 0.684704
v -0.257465 6.133301 0.574174
v -0.105695 6.013843 0.865717
v -0.464651 6.166178 1.100482
v -0.605917 6.277368 0.829117
v -0.318787 6.391078 0.726237
v -0.177522 6.279889 0.997602
v -0.511872 6.422975 1.216702
v -0.643310 6.526429 0.964216
v -0.376155 6.632231 0.868493
v -0.244717 6.528776 1.120979
v -0.556546 6.665926 1.326657
v -0.678687 6.762063 1.092030
v -0.430430 6.860379 1.003078
v -0.308289 6.764243 1.237705
v -0.599151 6.897622 1.431517
v -0.712425 6.986779 1.213923
v -0.482190 7.077959 1.131429
v -0.368916 6.988801 1.349023
v -0.640025 7.119905 1.532118
v -0.744793 7.202367 1.330864
v -0.531847 7.286699 1.254565
v -0.427080 7.204237 1.455819
v -0.679421 7.334149 1.629080
v -0.775990 7.410158 1.443576
v -0.579709 7.487890 1.373248
v -0.483140 7.411881 1.558752
v -0.717532 7.541409 1.722882
v -0.806170 7.611175 1.552614
v -0.626010 7.682524 1.488062
v -0.537373 7.612758 1.658330
v -0.754513 7.742522 1.813901
v -0.835454 7.806230 1.658417
v -0.670938 7.871382 1.599470
v -0.589997 7.807674 1.754954
v -0.520081 0.957045 0.201523
v -0.217138 0.942227 -0.540454
v 0.524984 0.946046 -0.237528
v 0.222041 0.960864 0.504449
v -0.478813 1.641553 0.171968
v -0.198772 1.627855 -0.513916
v 0.487246 1.631385 -0.233891
v 0.207205 1.645084 0.451993
v -0.442011 2.251976 0.145612
v -0.182394 2.239277 -0.490250
v 0.453592 2.242550 -0.230647
v 0.193975 2.255249 0.405215
v -0.407840 2.818772 0.121140
v -0.167186 2.807000 -0.468275
v 0.422344 2.810034 -0.227635
v 0.181691 2.821805 0.361780
v -0.375500 3.355189 0.097980
v -0.152794 3.344296 -0.447478
v 0.392770 3.347103 -0.224785
v 0.170064 3.357997 0.320673
v -0.344548 3.868578 0.075814
v -0.139020 3.858525 -0.427574
v 0.364466 3.861116 -0.222057
v 0.158937 3.871169 0.281331
v -0.152554 4.516119 -0.601519
v 0.297936 4.301918 -0.567214
v 0.449516 4.669299 -0.263810
vn 0.7829 0.5914 0.1932
vn 0.8663 0.0528 -0.4967
vn -0.0821 0.2192 -0.9722
vn -0.7020 -0.7048 -0.1024
vn 0.0048 -0.1522 0.9883
vn 0.6247 0.7718 0.1185
vn 0.3623 -0.0741 0.9291
vn 0.1222 -0.1448 0.9819
vn -0.9327 -0.3596 -0.0268
vn 0.5774 0.7983 0.1712
vn -0.0335 0.2222 -0.9744
vn -0.1833 0.8725 0.4529
vn 0.1676 0.8847 -0.4350
vn -0.0585 0.9900 -0.1284
vn -0.7463 0.6472 0.1557
vn -0.5990 0.4055 -0.6905
vn 0.1340 -0.4154 -0.8997
vn -0.6955 0.4954 0.5204
vn 0.3262 0.2999 -0.8965
vn -0.7715 -0.3362 -0.5401
vn -0.0026 -0.9998 0.0189
vn -0.3104 -0.5259 0.7919
vn -0.3834 -0.3308 0.8623
vn 0.9109 -0.0520 0.4094
vn -0.3570 0.9211 0.1551
vn -0.8477 -0.0362 -0.5292
vn 0.4922 -0.0421 -0.8695
vn 0.8290 0.0873 0.5524
vn -0.4867 0.0594 0.8716
vn -0.8686 -0.0734 -0.4901
vn 0.8638 0.1548 0.4795
vn -0.4970 0.1236 0.8589
vn -0.1710 -0.3627 -0.9161
vn 0.9720 -0.1887 -0.1398
vn 0.1964 0.4555 0.8683
vn -0.9546 0.2885 0.0743
vn -0.1800 -0.3470 -0.9204
vn 0.9758 -0.1766 -0.1286
vn 0.2012 0.4588 0.8654
vn -0.9547 0.2885 0.0736
vn -0.3032 -0.7348 -0.6068
vn 0.9010 -0.4284 0.0686
vn 0.3032 0.7348 0.6068
vn -0.9010 0.4284 -0.0686
vn -0.2929 -0.7307 -0.6167
vn 0.9002 -0.4312 0.0604
vn 0.3004 0.7474 0.5926
vn -0.8966 0.4376 -0.0679
vn -0.8876 -0.3126 0.3383
vn -0.4082 0.2250 -0.8847
vn 0.8762 0.3882 -0.2856
vn 0.4264 -0.3067 0.8510
vn -0.8887 -0.3145 0.3338
vn -0.4409 0.3759 -0.8150
vn 0.8741 0.3836 -0.2979
vn 0.8741 0.3837 -0.2979
vn 0.8741 0.3837 -0.2978
vn -0.9248 0.0394 -0.3784
vn 0.3777 0.0257 -0.9256
vn 0.9250 0.0489 0.3767
vn -0.3775 0.0626 0.9239
s 0
usemtl Material
f 62//1 63//1 153//1 138//1
f 62//2 138//2 220//2 137//2
f 38//3 39//3 35//3 34//3
f 37//4 38//4 34//4 33//4
f 36//5 33//5 29//5 32//5
f 35//6 36//6 32//6 31//6
f 153//7 152//7 221//7
f 34//3 35//3 31//3 30//3
f 33//4 34//4 30//4 29//4
f 32//8 29//8 25//8 28//8
f 25//9 26//9 218//9
f 31//10 32//10 28//10 27//10
f 30//11 31//11 27//11 26//11
f 29//4 30//4 26//4 25//4
f 24//12 23//12 22//12 21//12
f 16//13 15//13 14//13 13//13
f 12//14 11//14 10//14 9//14
f 8//15 7//15 6//15 5//15
f 61//16 136//16 26//16 27//16
f 136//17 137//17 220//17 219//17
f 28//18 25//18 152//18
f 61//19 62//19 137//19 136//19
f 26//20 136//20 219//20 218//20
f 1//21 2//21 3//21 4//21
f 222//22 223//22 224//22 139//22
f 152//23 25//23 218//23 221//23
f 138//24 153//24 221//24 220//24
f 27//25 28//25 63//25
f 39//6 40//6 36//6 35//6
f 40//5 37//5 33//5 36//5
f 41//4 42//4 38//4 37//4
f 42//3 43//3 39//3 38//3
f 43//6 44//6 40//6 39//6
f 44//5 41//5 37//5 40//5
f 45//4 46//4 42//4 41//4
f 46//3 47//3 43//3 42//3
f 47//6 48//6 44//6 43//6
f 48//5 45//5 41//5 44//5
f 49//4 50//4 46//4 45//4
f 50//3 51//3 47//3 46//3
f 51//6 52//6 48//6 47//6
f 52//5 49//5 45//5 48//5
f 53//4 54//4 50//4 49//4
f 54//3 55//3 51//3 50//3
f 55//6 56//6 52//6 51//6
f 56//5 53//5 49//5 52//5
f 57//4 58//4 54//4 53//4
f 58//3 59//3 55//3 54//3
f 59//6 60//6 56//6 55//6
f 60//5 57//5 53//5 56//5
f 5//4 6//4 58//4 57//4
f 6//3 7//3 59//3 58//3
f 7//6 8//6 60//6 59//6
f 8//5 5//5 57//5 60//5
f 64//26 65//26 61//26 27//26
f 65//27 66//27 62//27 61//27
f 66//28 67//28 63//28 62//28
f 67//29 64//29 27//29 63//29
f 68//30 69//30 65//30 64//30
f 69//27 70//27 66//27 65//27
f 70//31 71//31 67//31 66//31
f 71//32 68//32 64//32 67//32
f 72//30 73//30 69//30 68//30
f 73//27 74//27 70//27 69//27
f 74//31 75//31 71//31 70//31
f 75//32 72//32 68//32 71//32
f 76//30 77//30 73//30 72//30
f 77//27 78//27 74//27 73//27
f 78//31 79//31 75//31 74//31
f 79//32 76//32 72//32 75//32
f 80//30 81//30 77//30 76//30
f 81//27 82//27 78//27 77//27
f 82//31 83//31 79//31 78//31
f 83//32 80//32 76//32 79//32
f 84//30 85//30 81//30 80//30
f 85//27 86//27 82//27 81//27
f 86//31 87//31 83//31 82//31
f 87//32 84//32 80//32 83//32
f 88//30 89//30 85//30 84//30
f 89//27 90//27 86//27 85//27
f 90//31 91//31 87//31 86//31
f 91//32 88//32 84//32 87//32
f 92//30 93//30 89//30 88//30
f 93//27 94//27 90//27 89//27
f 94//31 95//31 91//31 90//31
f 95//32 92//32 88//32 91//32
f 96//30 97//30 93//30 92//30
f 97//27 98//27 94//27 93//27
f 98//31 99//31 95//31 94//31
f 99//32 96//32 92//32 95//32
f 100//30 101//30 97//30 96//30
f 101//27 102//27 98//27 97//27
f 102//31 103//31 99//31 98//31
f 103//32 100//32 96//32 99//32
f 104//30 105//30 101//30 100//30
f 105//27 106//27 102//27 101//27
f 106//31 107//31 103//31 102//31
f 107//32 104//32 100//32 103//32
f 9//30 10//30 105//30 104//30
f 10//27 11//27 106//27 105//27
f 11//31 12//31 107//31 106//31
f 12//32 9//32 104//32 107//32
f 108//33 109//33 18//33 17//33
f 109//34 110//34 19//34 18//34
f 110//35 111//35 20//35 19//35
f 111//36 108//36 17//36 20//36
f 112//37 113//37 109//37 108//37
f 113//38 114//38 110//38 109//38
f 114//39 115//39 111//39 110//39
f 115//40 112//40 108//40 111//40
f 116//37 117//37 113//37 112//37
f 117//38 118//38 114//38 113//38
f 118//39 119//39 115//39 114//39
f 119//40 116//40 112//40 115//40
f 120//37 121//37 117//37 116//37
f 121//38 122//38 118//38 117//38
f 122//39 123//39 119//39 118//39
f 123//40 120//40 116//40 119//40
f 124//37 125//37 121//37 120//37
f 125//38 126//38 122//38 121//38
f 126//39 127//39 123//39 122//39
f 127//40 124//40 120//40 123//40
f 128//37 129//37 125//37 124//37
f 129//38 130//38 126//38 125//38
f 130//39 131//39 127//39 126//39
f 131//40 128//40 124//40 127//40
f 132//37 133//37 129//37 128//37
f 133//38 134//38 130//38 129//38
f 134//39 135//39 131//39 130//39
f 135//40 132//40 128//40 131//40
f 13//37 14//37 133//37 132//37
f 14//38 15//38 134//38 133//38
f 15//39 16//39 135//39 134//39
f 16//40 13//40 132//40 135//40
f 140//41 141//41 223//41 222//41
f 141//42 142//42 224//42 223//42
f 142//43 143//43 139//43 224//43
f 143//44 140//44 222//44 139//44
f 144//41 145//41 141//41 140//41
f 145//42 146//42 142//42 141//42
f 146//43 147//43 143//43 142//43
f 147//44 144//44 140//44 143//44
f 148//41 149//41 145//41 144//41
f 149//42 150//42 146//42 145//42
f 150//43 151//43 147//43 146//43
f 151//44 148//44 144//44 147//44
f 17//45 18//45 149//45 148//45
f 18//46 19//46 150//46 149//46
f 19//47 20//47 151//47 150//47
f 20//48 17//48 148//48 151//48
f 154//49 155//49 28//49 152//49
f 155//50 156//50 63//50 28//50
f 156//51 157//51 153//51 63//51
f 157//52 154//52 152//52 153//52
f 158//53 159//53 155//53 154//53
f 159//54 160//54 156//54 155//54
f 160//55 161//55 157//55 156//55
f 161//52 158//52 154//52 157//52
f 162//53 163//53 159//53 158//53
f 163//54 164//54 160//54 159//54
f 164//55 165//55 161//55 160//55
f 165//52 162//52 158//52 161//52
f 166//53 167//53 163//53 162//53
f 167//54 168//54 164//54 163//54
f 168//55 169//55 165//55 164//55
f 169//52 166//52 162//52 165//52
f 170//53 171//53 167//53 166//53
f 171//54 172//54 168//54 167//54
f 172//55 173//55 169//55 168//55
f 173//52 170//52 166//52 169//52
f 174//53 175//53 171//53 170//53
f 175//54 176//54 172//54 171//54
f 176//55 177//55 173//55 172//55
f 177//52 174//52 170//52 173//52
f 178//53 179//53 175//53 174//53
f 179//54 180//54 176//54 175//54
f 180//55 181//55 177//55 176//55
f 181//52 178//52 174//52 177//52
f 182//53 183//53 179//53 178//53
f 183//54 184//54 180//54 179//54
f 184//56 185//56 181//56 180//56
f 185//52 182//52 178//52 181//52
f 186//53 187//53 183//53 182//53
f 187//54 188//54 184//54 183//54
f 188//55 189//55 185//55 184//55
f 189//52 186//52 182//52 185//52
f 190//53 191//53 187//53 186//53
f 191//54 192//54 188//54 187//54
f 192//55 193//55 189//55 188//55
f 193//52 190//52 186//52 189//52
f 194//53 195//53 191//53 190//53
f 195//54 196//54 192//54 191//54
f 196//56 197//56 193//56 192//56
f 197//52 194//52 190//52 193//52
f 21//53 22//53 195//53 194//53
f 22//54 23//54 196//54 195//54
f 23//57 24//57 197//57 196//57
f 24//52 21//52 194//52 197//52
f 198//58 199//58 2//58 1//58
f 199//59 200//59 3//59 2//59
f 200//60 201//60 4//60 3//60
f 201//61 198//61 1//61 4//61
f 202//58 203//58 199//58 198//58
f 203//59 204//59 200//59 199//59
f 204//60 205//60 201//60 200//60
f 205//61 202//61 198//61 201//61
f 206//58 207//58 203//58 202//58
f 207//59 208//59 204//59 203//59
f 208//60 209//60 205//60 204//60
f 209//61 206//61 202//61 205//61
f 210//58 211//58 207//58 206//58
f 211//59 212//59 208//59 207//59
f 212//60 213//60 209//60 208//60
f 213//61 210//61 206//61 209//61
f 214//58 215//58 211//58 210//58
f 215//59 216//59 212//59 211//59
f 216//60 217//60 213//60 212//60
f 217//61 214//61 210//61 213//61
f 218//58 219//58 215//58 214//58
f 219//59 220//59 216//59 215//59
f 220//60 221//60 217//60 216//60
f 221//61 218//61 214//61 217//61
o Icosphere
v 0.265281 4.924501 -0.388382
v 2.736627 6.812454 1.407135
v -0.678670 6.812454 2.516850
v -2.789492 6.812454 -0.388382
v -0.678670 6.812454 -3.293614
v 2.736627 6.812454 -2.183899
v 1.209232 9.867245 2.516850
v -2.206065 9.867245 1.407135
v -2.206065 9.867245 -2.183899
v 1.209232 9.867245 -3.293614
v 3.320054 9.867245 -0.388382
v 0.265281 11.755198 -0.388382
vn 0.1876 -0.7947 0.5774
vn 0.6071 -0.7947 -0.0000
vn -0.4911 -0.7947 0.3568
vn -0.4911 -0.7947 -0.3568
vn 0.1876 -0.7947 -0.5774
vn 0.9822 -0.1876 -0.0000
vn 0.3035 -0.1876 0.9342
vn -0.7946 -0.1876 0.5774
vn -0.7946 -0.1876 -0.5774
vn 0.3035 -0.1876 -0.9342
vn 0.7946 0.1876 0.5774
vn -0.3035 0.1876 0.9342
vn -0.9822 0.1876 -0.0000
vn -0.3035 0.1876 -0.9342
vn 0.7946 0.1876 -0.5774
vn 0.4911 0.7947 0.3568
vn -0.1876 0.7947 0.5774
vn -0.6071 0.7947 -0.0000
vn -0.1876 0.7947 -0.5774
vn 0.4911 0.7947 -0.3568
vt 0.181819 0.000000
vt 0.272728 0.157461
vt 0.090910 0.157461
vt 0.363637 0.000000
vt 0.454546 0.157461
vt 0.909091 0.000000
vt 1.000000 0.157461
vt 0.818182 0.157461
vt 0.727273 0.000000
vt 0.636364 0.157461
vt 0.545455 0.000000
vt 0.363637 0.314921
vt 0.181819 0.314921
vt 0.909091 0.314921
vt 0.727273 0.314921
vt 0.545455 0.314921
vt 0.000000 0.314921
vt 0.272728 0.472382
vt 0.090910 0.472382
vt 0.818182 0.472382
vt 0.636364 0.472382
vt 0.454546 0.472382
s 0
f 225/1/62 226/2/62 227/3/62
f 226/2/63 225/4/63 230/5/63
f 225/6/64 227/7/64 228/8/64
f 225/9/65 228/8/65 229/10/65
f 225/11/66 229/10/66 230/5/66
f 226/2/67 230/5/67 235/12/67
f 227/3/68 226/2/68 231/13/68
f 228/8/69 227/7/69 232/14/69
f 229/10/70 228/8/70 233/15/70
f 230/5/71 229/10/71 234/16/71
f 226/2/72 235/12/72 231/13/72
f 227/3/73 231/13/73 232/17/73
f 228/8/74 232/14/74 233/15/74
f 229/10/75 233/15/75 234/16/75
f 230/5/76 234/16/76 235/12/76
f 231/13/77 235/12/77 236/18/77
f 232/17/78 231/13/78 236/19/78
f 233/15/79 232/14/79 236/20/79
f 234/16/80 233/15/80 236/21/80
f 235/12/81 234/16/81 236/22/81
o Icosphere.001
v 1.639442 4.239067 -2.951038
v 3.297889 5.528516 -1.700852
v 0.967298 5.494158 -0.963815
v -0.454167 5.501204 -2.952671
v 0.997968 5.539917 -4.918877
v 3.316844 5.556796 -4.145194
v 2.229259 7.587588 -0.929809
v -0.089617 7.570709 -1.703493
v -0.070662 7.598989 -4.147835
v 2.259929 7.633347 -4.884871
v 3.681394 7.626301 -2.896015
v 1.587785 8.888437 -2.897648
vn 0.1919 -0.7992 0.5697
vn 0.6158 -0.7879 -0.0043
vn -0.4850 -0.8041 0.3438
vn -0.4795 -0.7958 -0.3698
vn 0.2009 -0.7858 -0.5849
vn 0.9842 -0.1767 0.0056
vn 0.2983 -0.1950 0.9343
vn -0.7970 -0.2030 0.5689
vn -0.7880 -0.1896 -0.5857
vn 0.3128 -0.1734 -0.9338
vn 0.7880 0.1896 0.5857
vn -0.3128 0.1734 0.9338
vn -0.9842 0.1767 -0.0056
vn -0.2983 0.1950 -0.9343
vn 0.7970 0.2030 -0.5689
vn 0.4795 0.7958 0.3698
vn -0.2009 0.7858 0.5849
vn -0.6158 0.7879 0.0043
vn -0.1919 0.7992 -0.5697
vn 0.4850 0.8041 -0.3438
vt 0.181819 0.000000
vt 0.272728 0.157461
vt 0.090910 0.157461
vt 0.363637 0.000000
vt 0.454546 0.157461
vt 0.909091 0.000000
vt 1.000000 0.157461
vt 0.818182 0.157461
vt 0.727273 0.000000
vt 0.636364 0.157461
vt 0.545455 0.000000
vt 0.363637 0.314921
vt 0.181819 0.314921
vt 0.909091 0.314921
vt 0.727273 0.314921
vt 0.545455 0.314921
vt 0.000000 0.314921
vt 0.272728 0.472382
vt 0.090910 0.472382
vt 0.818182 0.472382
vt 0.636364 0.472382
vt 0.454546 0.472382
s 0
f 237/23/82 238/24/82 239/25/82
f 238/24/83 237/26/83 242/27/83
f 237/28/84 239/29/84 240/30/84
f 237/31/85 240/30/85 241/32/85
f 237/33/86 241/32/86 242/27/86
f 238/24/87 242/27/87 247/34/87
f 239/25/88 238/24/88 243/35/88
f 240/30/89 239/29/89 244/36/89
f 241/32/90 240/30/90 245/37/90
f 242/27/91 241/32/91 246/38/91
f 238/24/92 247/34/92 243/35/92
f 239/25/93 243/35/93 244/39/93
f 240/30/94 244/36/94 245/37/94
f 241/32/95 245/37/95 246/38/95
f 242/27/96 246/38/96 247/34/96
f 243/35/97 247/34/97 248/40/97
f 244/39/98 243/35/98 248/41/98
f 245/37/99 244/36/99 248/42/99
f 246/38/100 245/37/100 248/43/100
f 247/34/101 246/38/101 248/44/101
o Icosphere.002
v -2.272785 4.151553 -0.207718
v -1.042236 5.108310 0.719906
v -2.771508 5.082817 1.266779
v -3.826220 5.088044 -0.208930
v -2.748752 5.116769 -1.667833
v -1.028172 5.129293 -1.093768
v -1.835148 6.636118 1.292011
v -3.555728 6.623594 0.717947
v -3.541664 6.644577 -1.095728
v -1.812391 6.670070 -1.642601
v -0.757680 6.664843 -0.166892
v -2.311114 7.601334 -0.168103
vn 0.1919 -0.7992 0.5697
vn 0.6158 -0.7879 -0.0043
vn -0.4850 -0.8041 0.3438
vn -0.4795 -0.7958 -0.3698
vn 0.2009 -0.7858 -0.5849
vn 0.9842 -0.1767 0.0056
vn 0.2983 -0.1950 0.9343
vn -0.7970 -0.2030 0.5689
vn -0.7880 -0.1896 -0.5857
vn 0.3128 -0.1734 -0.9338
vn 0.7880 0.1896 0.5857
vn -0.3128 0.1734 0.9338
vn -0.9842 0.1767 -0.0056
vn -0.2983 0.1950 -0.9343
vn 0.7970 0.2030 -0.5689
vn 0.4795 0.7958 0.3698
vn -0.2009 0.7858 0.5849
vn -0.6158 0.7879 0.0043
vn -0.1919 0.7992 -0.5697
vn 0.4850 0.8041 -0.3438
vt 0.181819 0.000000
vt 0.272728 0.157461
vt 0.090910 0.157461
vt 0.363637 0.000000
vt 0.454546 0.157461
vt 0.909091 0.000000
vt 1.000000 0.157461
vt 0.818182 0.157461
vt 0.727273 0.000000
vt 0.636364 0.157461
vt 0.545455 0.000000
vt 0.363637 0.314921
vt 0.181819 0.314921
vt 0.909091 0.314921
vt 0.727273 0.314921
vt 0.545455 0.314921
vt 0.000000 0.314921
vt 0.272728 0.472382
vt 0.090910 0.472382
vt 0.818182 0.472382
vt 0.636364 0.472382
vt 0.454546 0.472382
s 0
f 249/45/102 250/46/102 251/47/102
f 250/46/103 249/48/103 254/49/103
f 249/50/104 251/51/104 252/52/104
f 249/53/105 252/52/105 253/54/105
f 249/55/106 253/54/106 254/49/106
f 250/46/107 254/49/107 259/56/107
f 251/47/108 250/46/108 255/57/108
f 252/52/109 251/51/109 256/58/109
f 253/54/110 252/52/110 257/59/110
f 254/49/111 253/54/111 258/60/111
f 250/46/112 259/56/112 255/57/112
f 251/47/113 255/57/113 256/61/113
f 252/52/114 256/58/114 257/59/114
f 253/54/115 257/59/115 258/60/115
f 254/49/116 258/60/116 259/56/116
f 255/57/117 259/56/117 260/62/117
f 256/61/118 255/57/118 260/63/118
f 257/59/119 256/58/119 260/64/119
f 258/60/120 257/59/120 260/65/120
f 259/56/121 258/60/121 260/66/121
o Icosphere.003
v -0.783024 4.578381 1.094015
v -0.020423 5.171306 1.668886
v -1.092095 5.155508 2.007797
v -1.745725 5.158748 1.093264
v -1.077992 5.176548 0.189147
v -0.011707 5.184310 0.544909
v -0.511809 6.118126 2.023434
v -1.578095 6.110365 1.667672
v -1.569379 6.123369 0.543694
v -0.497707 6.139167 0.204784
v 0.155923 6.135927 1.119316
v -0.806777 6.716294 1.118566
vn 0.1919 -0.7992 0.5697
vn 0.6158 -0.7879 -0.0043
vn -0.4850 -0.8041 0.3438
vn -0.4795 -0.7958 -0.3698
vn 0.2009 -0.7858 -0.5849
vn 0.9842 -0.1767 0.0056
vn 0.2983 -0.1950 0.9343
vn -0.7970 -0.2030 0.5689
vn -0.7880 -0.1896 -0.5857
vn 0.3128 -0.1734 -0.9338
vn 0.7880 0.1896 0.5857
vn -0.3128 0.1734 0.9338
vn -0.9842 0.1767 -0.0056
vn -0.2983 0.1950 -0.9343
vn 0.7970 0.2030 -0.5689
vn 0.4795 0.7958 0.3698
vn -0.2009 0.7858 0.5849
vn -0.6158 0.7879 0.0043
vn -0.1919 0.7992 -0.5697
vn 0.4850 0.8041 -0.3438
vt 0.181819 0.000000
vt 0.272728 0.157461
vt 0.090910 0.157461
vt 0.363637 0.000000
vt 0.454546 0.157461
vt 0.909091 0.000000
vt 1.000000 0.157461
vt 0.818182 0.157461
vt 0.727273 0.000000
vt 0.636364 0.157461
vt 0.545455 0.000000
vt 0.363637 0.314921
vt 0.181819 0.314921
vt 0.909091 0.314921
vt 0.727273 0.314921
vt 0.545455 0.314921
vt 0.000000 0.314921
vt 0.272728 0.472382
vt 0.090910 0.472382
vt 0.818182 0.472382
vt 0.636364 0.472382
vt 0.454546 0.472382
s 0
f 261/67/122 262/68/122 263/69/122
f 262/68/123 261/70/123 266/71/123
f 261/72/124 263/73/124 264/74/124
f 261/75/125 264/74/125 265/76/125
f 261/77/126 265/76/126 266/71/126
f 262/68/127 266/71/127 271/78/127
f 263/69/128 262/68/128 267/79/128
f 264/74/129 263/73/129 268/80/129
f 265/76/130 264/74/130 269/81/130
f 266/71/131 265/76/131 270/82/131
f 262/68/132 271/78/132 267/79/132
f 263/69/133 267/79/133 268/83/133
f 264/74/134 268/80/134 269/81/134
f 265/76/135 269/81/135 270/82/135
f 266/71/136 270/82/136 271/78/136
f 267/79/137 271/78/137 272/84/137
f 268/83/138 267/79/138 272/85/138
f 269/81/139 268/80/139 272/86/139
f 270/82/140 269/81/140 272/87/140
f 271/78/141 270/82/141 272/88/141
